<?xml version="1.0" encoding="utf-8"?><svg viewBox="0 0 95 95" xmlns="http://www.w3.org/2000/svg" xmlns:xlink="http://www.w3.org/1999/xlink"><style>:root>svg{display:none}:root>svg:target{display:block}</style><svg viewBox="0 0 30 25" id="button" xmlns="http://www.w3.org/2000/svg"><g fill="#7B6152"><path d="M0 0h30v1H0zM0 6h30v1H0zM0 12h30v1H0zM0 18h30v1H0zM0 24h30v1H0z"/></g></svg><svg viewBox="0 0 22 22" id="facebook" xmlns="http://www.w3.org/2000/svg"><path d="M11 2.063A8.938 8.938 0 1019.938 11 8.947 8.947 0 0011 2.062zm.688 16.468v-5.468h2.062a.687.687 0 100-1.376h-2.063V9.626a1.375 1.375 0 011.376-1.375h1.374a.687.687 0 000-1.375h-1.374a2.75 2.75 0 00-2.75 2.75v2.063H8.25a.687.687 0 100 1.374h2.063v5.469a7.562 7.562 0 111.374 0z"/></svg><svg viewBox="0 0 22 22" id="instagram" xmlns="http://www.w3.org/2000/svg"><path d="M11 6.875a4.125 4.125 0 100 8.25 4.125 4.125 0 000-8.25zm0 6.875a2.75 2.75 0 110-5.5 2.75 2.75 0 010 5.5zm4.125-11.688h-8.25a4.818 4.818 0 00-4.813 4.813v8.25a4.818 4.818 0 004.813 4.813h8.25a4.817 4.817 0 004.813-4.813v-8.25a4.818 4.818 0 00-4.813-4.813zm3.438 13.063a3.438 3.438 0 01-3.438 3.438h-8.25a3.438 3.438 0 01-3.438-3.438v-8.25a3.437 3.437 0 013.438-3.438h8.25a3.438 3.438 0 013.438 3.438v8.25zM16.5 6.531a1.031 1.031 0 11-2.063 0 1.031 1.031 0 012.063 0z"/></svg><svg viewBox="0 0 22 22" id="linkedin" xmlns="http://www.w3.org/2000/svg"><path d="M9.197 14.025H7.73V9.259h1.467v4.766zm-.733-5.377c-.53 0-.794-.245-.794-.733a.678.678 0 01.229-.52.796.796 0 01.565-.214c.528 0 .793.246.793.734 0 .489-.264.733-.793.733zm6.172 5.377H13.14v-2.658c0-.692-.246-1.039-.735-1.039-.387 0-.64.194-.764.58-.04.062-.06.185-.06.367v2.75h-1.498v-3.239c0-.733-.01-1.242-.03-1.527h1.283l.092.641c.336-.51.825-.764 1.497-.764.51 0 .922.178 1.237.535.318.356.475.87.475 1.543v2.811zM11 19.25c-4.55 0-8.25-3.7-8.25-8.25S6.45 2.75 11 2.75s8.25 3.7 8.25 8.25-3.7 8.25-8.25 8.25zm0-14.667A6.425 6.425 0 004.583 11 6.425 6.425 0 0011 17.417 6.425 6.425 0 0017.417 11 6.425 6.425 0 0011 4.583z"/></svg><svg fill="none" viewBox="0 0 20 21" id="phone" xmlns="http://www.w3.org/2000/svg"><path d="M17.5 13.861l-4.392-.508-2.1 2.099a12.533 12.533 0 01-5.491-5.488l2.108-2.108-.508-4.372H2.525C2.042 11.962 9.017 18.934 17.5 18.45v-4.589z" fill="#BEA495"/></svg><svg fill="none" viewBox="0 0 95 95" id="play" xmlns="http://www.w3.org/2000/svg"><path d="M37.604 65.313L65.313 47.5 37.604 29.688v35.625zm9.896 21.77c-5.476 0-10.621-1.04-15.437-3.119-4.816-2.08-9.006-4.899-12.568-8.459-3.563-3.562-6.382-7.751-8.46-12.567C8.96 58.122 7.92 52.976 7.918 47.5c0-5.476 1.04-10.621 3.119-15.437 2.08-4.816 4.899-9.006 8.459-12.568 3.562-3.563 7.752-6.382 12.568-8.46C36.879 8.96 42.024 7.92 47.5 7.918c5.476 0 10.622 1.04 15.438 3.119 4.816 2.08 9.005 4.899 12.567 8.459 3.563 3.562 6.384 7.752 8.463 12.568 2.08 4.816 3.118 9.961 3.115 15.437 0 5.476-1.04 10.622-3.119 15.438-2.08 4.816-4.899 9.005-8.459 12.567-3.562 3.563-7.751 6.384-12.567 8.463-4.816 2.08-9.962 3.118-15.438 3.115z" fill="#BDBDBD" fill-opacity=".87"/></svg><svg fill="none" viewBox="0 0 22 22" id="youtube" xmlns="http://www.w3.org/2000/svg"><g stroke="#000" stroke-linecap="round" stroke-linejoin="round"><path d="M18.071 3.143H3.928A3.143 3.143 0 00.786 6.286v9.428a3.143 3.143 0 003.143 3.143H18.07a3.143 3.143 0 003.143-3.143V6.286a3.143 3.143 0 00-3.143-3.143z"/><path d="M8.344 14.646v-6.6a.613.613 0 01.943-.534l5.657 3.3a.628.628 0 010 1.084l-5.657 3.3a.63.63 0 01-.943-.55z"/></g></svg></svg>